# xmcd
#
# Track frame offsets:
#   150
#   13955
#   28466
#   42005
#   56052
#   73079
#   86516
#   100732
#   113715
#   126863
#
# Disc length: 1859 seconds
#
# Revision: 0
# Processed by: cddbd v1.5.2PL0 Copyright (c) Steve Scherf et al.
# Submitted via: uFREEDB ActiveX Control 1.5
#
DISCID=8807410a
DTITLE=Kleiton Ribeiro - Acredite Te Amo
DYEAR=2010
DGENRE=Country
TTITLE0=Pra Vida Inteira
TTITLE1=Não Vou Voltar
TTITLE2=Objeto Sem Valor
TTITLE3=Sem Você
TTITLE4=Acredite Te Amo
TTITLE5=Mania de Querer Demais
TTITLE6=Esse Nosso Amor Já Era
TTITLE7=Vou Ligar
TTITLE8=Hoje Tem Que Acontecer
TTITLE9=Apaixonado
EXTD=
EXTT0=
EXTT1=
EXTT2=
EXTT3=
EXTT4=
EXTT5=
EXTT6=
EXTT7=
EXTT8=
EXTT9=
PLAYORDER=
